<mxfile host="app.diagrams.net" agent="Mozilla/5.0 (Macintosh; Intel Mac OS X 10_15_7) AppleWebKit/537.36 (KHTML, like Gecko) Chrome/131.0.0.0 Safari/537.36" version="24.9.0">
  <diagram name="Page-1" id="GkH5m1_yOiC-x1mbVlxD">
    <mxGraphModel dx="1193" dy="1856" grid="1" gridSize="10" guides="1" tooltips="1" connect="1" arrows="1" fold="1" page="1" pageScale="1" pageWidth="850" pageHeight="1100" math="0" shadow="0">
      <root>
        <mxCell id="0" />
        <mxCell id="1" parent="0" />
        <mxCell id="AlYXtU_ZY5P7jpcNASPs-43" value="" style="ellipse;whiteSpace=wrap;html=1;aspect=fixed;" vertex="1" parent="1">
          <mxGeometry x="568.5" y="147.5" width="20" height="20" as="geometry" />
        </mxCell>
        <mxCell id="AlYXtU_ZY5P7jpcNASPs-1" value="" style="rounded=0;whiteSpace=wrap;html=1;" vertex="1" parent="1">
          <mxGeometry x="79" y="218.75" width="120" height="60" as="geometry" />
        </mxCell>
        <mxCell id="AlYXtU_ZY5P7jpcNASPs-2" value="" style="rhombus;whiteSpace=wrap;html=1;" vertex="1" parent="1">
          <mxGeometry x="344" y="208.75" width="80" height="80" as="geometry" />
        </mxCell>
        <mxCell id="AlYXtU_ZY5P7jpcNASPs-3" value="" style="rounded=0;whiteSpace=wrap;html=1;" vertex="1" parent="1">
          <mxGeometry x="516.5" y="217.5" width="120" height="60" as="geometry" />
        </mxCell>
        <mxCell id="AlYXtU_ZY5P7jpcNASPs-4" value="" style="endArrow=none;html=1;rounded=0;exitX=1;exitY=0.5;exitDx=0;exitDy=0;" edge="1" parent="1" source="AlYXtU_ZY5P7jpcNASPs-1" target="AlYXtU_ZY5P7jpcNASPs-2">
          <mxGeometry width="50" height="50" relative="1" as="geometry">
            <mxPoint x="359" y="408.75" as="sourcePoint" />
            <mxPoint x="409" y="358.75" as="targetPoint" />
          </mxGeometry>
        </mxCell>
        <mxCell id="AlYXtU_ZY5P7jpcNASPs-5" value="" style="endArrow=none;html=1;rounded=0;exitX=1;exitY=0.5;exitDx=0;exitDy=0;entryX=0;entryY=0.5;entryDx=0;entryDy=0;" edge="1" parent="1" target="AlYXtU_ZY5P7jpcNASPs-3">
          <mxGeometry width="50" height="50" relative="1" as="geometry">
            <mxPoint x="424" y="248.25" as="sourcePoint" />
            <mxPoint x="569" y="248.25" as="targetPoint" />
          </mxGeometry>
        </mxCell>
        <mxCell id="AlYXtU_ZY5P7jpcNASPs-6" value="" style="ellipse;whiteSpace=wrap;html=1;aspect=fixed;fillColor=#000000;" vertex="1" parent="1">
          <mxGeometry x="159" y="620" width="20" height="20" as="geometry" />
        </mxCell>
        <mxCell id="AlYXtU_ZY5P7jpcNASPs-7" value="" style="ellipse;whiteSpace=wrap;html=1;aspect=fixed;" vertex="1" parent="1">
          <mxGeometry x="189" y="620" width="20" height="20" as="geometry" />
        </mxCell>
        <mxCell id="AlYXtU_ZY5P7jpcNASPs-8" value="" style="shape=or;whiteSpace=wrap;html=1;fillColor=#000000;" vertex="1" parent="1">
          <mxGeometry x="199" y="620" width="10" height="20" as="geometry" />
        </mxCell>
        <mxCell id="AlYXtU_ZY5P7jpcNASPs-9" value="" style="ellipse;whiteSpace=wrap;html=1;aspect=fixed;" vertex="1" parent="1">
          <mxGeometry x="219" y="620" width="20" height="20" as="geometry" />
        </mxCell>
        <mxCell id="AlYXtU_ZY5P7jpcNASPs-10" value="" style="endArrow=classic;html=1;rounded=0;" edge="1" parent="1">
          <mxGeometry width="50" height="50" relative="1" as="geometry">
            <mxPoint x="198" y="590" as="sourcePoint" />
            <mxPoint x="198" y="530" as="targetPoint" />
          </mxGeometry>
        </mxCell>
        <mxCell id="AlYXtU_ZY5P7jpcNASPs-11" value="" style="endArrow=none;html=1;rounded=0;" edge="1" parent="1">
          <mxGeometry width="50" height="50" relative="1" as="geometry">
            <mxPoint x="158" y="590" as="sourcePoint" />
            <mxPoint x="158" y="530" as="targetPoint" />
          </mxGeometry>
        </mxCell>
        <mxCell id="AlYXtU_ZY5P7jpcNASPs-12" value="" style="endArrow=none;html=1;rounded=0;" edge="1" parent="1">
          <mxGeometry width="50" height="50" relative="1" as="geometry">
            <mxPoint x="239" y="590" as="sourcePoint" />
            <mxPoint x="239" y="530" as="targetPoint" />
          </mxGeometry>
        </mxCell>
        <mxCell id="AlYXtU_ZY5P7jpcNASPs-13" value="IdAtributo" style="text;html=1;align=center;verticalAlign=middle;whiteSpace=wrap;rounded=0;rotation=-90;" vertex="1" parent="1">
          <mxGeometry x="260" y="450" width="110" height="30" as="geometry" />
        </mxCell>
        <mxCell id="AlYXtU_ZY5P7jpcNASPs-15" value="&lt;meta charset=&quot;utf-8&quot;&gt;&lt;span style=&quot;color: rgb(0, 0, 0); font-family: Helvetica; font-size: 12px; font-style: normal; font-variant-ligatures: normal; font-variant-caps: normal; font-weight: 400; letter-spacing: normal; orphans: 2; text-align: center; text-indent: 0px; text-transform: none; widows: 2; word-spacing: 0px; -webkit-text-stroke-width: 0px; white-space: normal; background-color: rgb(251, 251, 251); text-decoration-thickness: initial; text-decoration-style: initial; text-decoration-color: initial; display: inline !important; float: none;&quot;&gt;IdAtributo&lt;/span&gt;" style="text;html=1;align=center;verticalAlign=middle;whiteSpace=wrap;rounded=0;rotation=0;" vertex="1" parent="1">
          <mxGeometry x="170" y="450" width="110" height="30" as="geometry" />
        </mxCell>
        <mxCell id="AlYXtU_ZY5P7jpcNASPs-16" value="IdAtributo" style="text;html=1;align=center;verticalAlign=middle;whiteSpace=wrap;rounded=0;rotation=90;" vertex="1" parent="1">
          <mxGeometry x="70" y="450" width="110" height="30" as="geometry" />
        </mxCell>
        <mxCell id="AlYXtU_ZY5P7jpcNASPs-17" value="" style="endArrow=none;dashed=1;html=1;rounded=0;" edge="1" parent="1">
          <mxGeometry width="50" height="50" relative="1" as="geometry">
            <mxPoint x="279" y="590" as="sourcePoint" />
            <mxPoint x="279" y="530" as="targetPoint" />
          </mxGeometry>
        </mxCell>
        <mxCell id="AlYXtU_ZY5P7jpcNASPs-18" value="" style="ellipse;whiteSpace=wrap;html=1;aspect=fixed;" vertex="1" parent="1">
          <mxGeometry x="330" y="540" width="20" height="20" as="geometry" />
        </mxCell>
        <mxCell id="AlYXtU_ZY5P7jpcNASPs-19" value="" style="ellipse;whiteSpace=wrap;html=1;aspect=fixed;" vertex="1" parent="1">
          <mxGeometry x="389" y="540" width="20" height="20" as="geometry" />
        </mxCell>
        <mxCell id="AlYXtU_ZY5P7jpcNASPs-20" value="" style="ellipse;whiteSpace=wrap;html=1;aspect=fixed;" vertex="1" parent="1">
          <mxGeometry x="359" y="590" width="20" height="20" as="geometry" />
        </mxCell>
        <mxCell id="AlYXtU_ZY5P7jpcNASPs-24" value="" style="endArrow=none;html=1;rounded=0;exitX=0;exitY=0.5;exitDx=0;exitDy=0;" edge="1" parent="1" source="AlYXtU_ZY5P7jpcNASPs-20">
          <mxGeometry width="50" height="50" relative="1" as="geometry">
            <mxPoint x="459" y="840" as="sourcePoint" />
            <mxPoint x="339" y="600" as="targetPoint" />
          </mxGeometry>
        </mxCell>
        <mxCell id="AlYXtU_ZY5P7jpcNASPs-25" value="" style="endArrow=none;html=1;rounded=0;" edge="1" parent="1">
          <mxGeometry width="50" height="50" relative="1" as="geometry">
            <mxPoint x="339.5" y="600" as="sourcePoint" />
            <mxPoint x="339" y="560" as="targetPoint" />
          </mxGeometry>
        </mxCell>
        <mxCell id="AlYXtU_ZY5P7jpcNASPs-26" value="" style="endArrow=none;html=1;rounded=0;entryX=1;entryY=0.5;entryDx=0;entryDy=0;" edge="1" parent="1" target="AlYXtU_ZY5P7jpcNASPs-20">
          <mxGeometry width="50" height="50" relative="1" as="geometry">
            <mxPoint x="399" y="600" as="sourcePoint" />
            <mxPoint x="349" y="610" as="targetPoint" />
          </mxGeometry>
        </mxCell>
        <mxCell id="AlYXtU_ZY5P7jpcNASPs-27" value="" style="endArrow=none;html=1;rounded=0;" edge="1" parent="1">
          <mxGeometry width="50" height="50" relative="1" as="geometry">
            <mxPoint x="399" y="600" as="sourcePoint" />
            <mxPoint x="399" y="560" as="targetPoint" />
          </mxGeometry>
        </mxCell>
        <mxCell id="AlYXtU_ZY5P7jpcNASPs-28" value="&lt;span style=&quot;color: rgb(0, 0, 0); font-family: Helvetica; font-size: 12px; font-style: normal; font-variant-ligatures: normal; font-variant-caps: normal; font-weight: 400; letter-spacing: normal; orphans: 2; text-align: center; text-indent: 0px; text-transform: none; widows: 2; word-spacing: 0px; -webkit-text-stroke-width: 0px; white-space: normal; background-color: rgb(251, 251, 251); text-decoration-thickness: initial; text-decoration-style: initial; text-decoration-color: initial; display: inline !important; float: none;&quot;&gt;Mascota&lt;/span&gt;" style="text;html=1;align=center;verticalAlign=middle;whiteSpace=wrap;rounded=0;rotation=0;" vertex="1" parent="1">
          <mxGeometry x="84" y="233.75" width="110" height="30" as="geometry" />
        </mxCell>
        <mxCell id="AlYXtU_ZY5P7jpcNASPs-29" value="&lt;span style=&quot;color: rgb(0, 0, 0); font-family: Helvetica; font-size: 12px; font-style: normal; font-variant-ligatures: normal; font-variant-caps: normal; font-weight: 400; letter-spacing: normal; orphans: 2; text-align: center; text-indent: 0px; text-transform: none; widows: 2; word-spacing: 0px; -webkit-text-stroke-width: 0px; white-space: normal; background-color: rgb(251, 251, 251); text-decoration-thickness: initial; text-decoration-style: initial; text-decoration-color: initial; display: inline !important; float: none;&quot;&gt;tener&lt;/span&gt;" style="text;html=1;align=center;verticalAlign=middle;whiteSpace=wrap;rounded=0;rotation=0;" vertex="1" parent="1">
          <mxGeometry x="329" y="233.75" width="110" height="30" as="geometry" />
        </mxCell>
        <mxCell id="AlYXtU_ZY5P7jpcNASPs-30" value="&lt;span style=&quot;color: rgb(0, 0, 0); font-family: Helvetica; font-size: 12px; font-style: normal; font-variant-ligatures: normal; font-variant-caps: normal; font-weight: 400; letter-spacing: normal; orphans: 2; text-align: center; text-indent: 0px; text-transform: none; widows: 2; word-spacing: 0px; -webkit-text-stroke-width: 0px; white-space: normal; background-color: rgb(251, 251, 251); text-decoration-thickness: initial; text-decoration-style: initial; text-decoration-color: initial; display: inline !important; float: none;&quot;&gt;Persona&lt;/span&gt;" style="text;html=1;align=center;verticalAlign=middle;whiteSpace=wrap;rounded=0;rotation=0;" vertex="1" parent="1">
          <mxGeometry x="521.5" y="232.5" width="110" height="30" as="geometry" />
        </mxCell>
        <mxCell id="AlYXtU_ZY5P7jpcNASPs-31" value="" style="endArrow=none;html=1;rounded=0;" edge="1" parent="1" source="AlYXtU_ZY5P7jpcNASPs-32">
          <mxGeometry width="50" height="50" relative="1" as="geometry">
            <mxPoint x="516.5" y="217.5" as="sourcePoint" />
            <mxPoint x="516.5" y="157.5" as="targetPoint" />
          </mxGeometry>
        </mxCell>
        <mxCell id="AlYXtU_ZY5P7jpcNASPs-33" value="" style="endArrow=none;html=1;rounded=0;" edge="1" parent="1" target="AlYXtU_ZY5P7jpcNASPs-32">
          <mxGeometry width="50" height="50" relative="1" as="geometry">
            <mxPoint x="516.5" y="217.5" as="sourcePoint" />
            <mxPoint x="516.5" y="157.5" as="targetPoint" />
          </mxGeometry>
        </mxCell>
        <mxCell id="AlYXtU_ZY5P7jpcNASPs-32" value="" style="ellipse;whiteSpace=wrap;html=1;aspect=fixed;fillColor=#000000;" vertex="1" parent="1">
          <mxGeometry x="506.5" y="147.5" width="20" height="20" as="geometry" />
        </mxCell>
        <mxCell id="AlYXtU_ZY5P7jpcNASPs-34" value="Dni" style="text;html=1;align=center;verticalAlign=middle;whiteSpace=wrap;rounded=0;rotation=-90;" vertex="1" parent="1">
          <mxGeometry x="461.5" y="117.5" width="110" height="30" as="geometry" />
        </mxCell>
        <mxCell id="AlYXtU_ZY5P7jpcNASPs-35" value="IdAtributo" style="text;html=1;align=center;verticalAlign=middle;whiteSpace=wrap;rounded=0;rotation=-90;" vertex="1" parent="1">
          <mxGeometry x="310" y="450" width="110" height="30" as="geometry" />
        </mxCell>
        <mxCell id="AlYXtU_ZY5P7jpcNASPs-36" value="" style="ellipse;whiteSpace=wrap;html=1;aspect=fixed;" vertex="1" parent="1">
          <mxGeometry x="536.5" y="147.5" width="20" height="20" as="geometry" />
        </mxCell>
        <mxCell id="AlYXtU_ZY5P7jpcNASPs-37" value="" style="shape=or;whiteSpace=wrap;html=1;fillColor=#000000;" vertex="1" parent="1">
          <mxGeometry x="546.5" y="147.5" width="10" height="20" as="geometry" />
        </mxCell>
        <mxCell id="AlYXtU_ZY5P7jpcNASPs-38" value="" style="endArrow=none;html=1;rounded=0;" edge="1" parent="1">
          <mxGeometry width="50" height="50" relative="1" as="geometry">
            <mxPoint x="546.5" y="217.5" as="sourcePoint" />
            <mxPoint x="546.5" y="167.5" as="targetPoint" />
          </mxGeometry>
        </mxCell>
        <mxCell id="AlYXtU_ZY5P7jpcNASPs-39" value="Email" style="text;html=1;align=center;verticalAlign=middle;whiteSpace=wrap;rounded=0;rotation=-90;" vertex="1" parent="1">
          <mxGeometry x="491.5" y="111.5" width="110" height="30" as="geometry" />
        </mxCell>
        <mxCell id="AlYXtU_ZY5P7jpcNASPs-41" value="" style="shape=or;whiteSpace=wrap;html=1;fillColor=#000000;" vertex="1" parent="1">
          <mxGeometry x="578.5" y="147.5" width="10" height="20" as="geometry" />
        </mxCell>
        <mxCell id="AlYXtU_ZY5P7jpcNASPs-42" value="Email" style="text;html=1;align=center;verticalAlign=middle;whiteSpace=wrap;rounded=0;rotation=-90;" vertex="1" parent="1">
          <mxGeometry x="726" y="-216" width="110" height="30" as="geometry" />
        </mxCell>
        <mxCell id="AlYXtU_ZY5P7jpcNASPs-44" value="" style="endArrow=none;html=1;rounded=0;" edge="1" parent="1">
          <mxGeometry width="50" height="50" relative="1" as="geometry">
            <mxPoint x="578.5" y="217.5" as="sourcePoint" />
            <mxPoint x="578.5" y="167.5" as="targetPoint" />
          </mxGeometry>
        </mxCell>
        <mxCell id="AlYXtU_ZY5P7jpcNASPs-45" value="Telefono" style="text;html=1;align=center;verticalAlign=middle;whiteSpace=wrap;rounded=0;rotation=-90;" vertex="1" parent="1">
          <mxGeometry x="522.5" y="104.5" width="110" height="30" as="geometry" />
        </mxCell>
        <mxCell id="AlYXtU_ZY5P7jpcNASPs-46" value="" style="ellipse;whiteSpace=wrap;html=1;aspect=fixed;" vertex="1" parent="1">
          <mxGeometry x="598.5" y="147.5" width="20" height="20" as="geometry" />
        </mxCell>
        <mxCell id="AlYXtU_ZY5P7jpcNASPs-47" value="" style="endArrow=none;html=1;rounded=0;" edge="1" parent="1">
          <mxGeometry width="50" height="50" relative="1" as="geometry">
            <mxPoint x="608" y="217.5" as="sourcePoint" />
            <mxPoint x="608" y="167.5" as="targetPoint" />
          </mxGeometry>
        </mxCell>
        <mxCell id="AlYXtU_ZY5P7jpcNASPs-48" value="FechaNacimiento" style="text;html=1;align=center;verticalAlign=middle;whiteSpace=wrap;rounded=0;rotation=-90;" vertex="1" parent="1">
          <mxGeometry x="532" y="80" width="153" height="30" as="geometry" />
        </mxCell>
        <mxCell id="AlYXtU_ZY5P7jpcNASPs-49" value="" style="ellipse;whiteSpace=wrap;html=1;aspect=fixed;" vertex="1" parent="1">
          <mxGeometry x="594" y="390" width="20" height="20" as="geometry" />
        </mxCell>
        <mxCell id="AlYXtU_ZY5P7jpcNASPs-50" value="" style="ellipse;whiteSpace=wrap;html=1;aspect=fixed;" vertex="1" parent="1">
          <mxGeometry x="650" y="390" width="20" height="20" as="geometry" />
        </mxCell>
        <mxCell id="AlYXtU_ZY5P7jpcNASPs-52" value="" style="endArrow=none;html=1;rounded=0;exitX=0;exitY=0.5;exitDx=0;exitDy=0;" edge="1" parent="1" source="AlYXtU_ZY5P7jpcNASPs-51">
          <mxGeometry width="50" height="50" relative="1" as="geometry">
            <mxPoint x="786.5" y="487.5" as="sourcePoint" />
            <mxPoint x="536.5" y="317.5" as="targetPoint" />
          </mxGeometry>
        </mxCell>
        <mxCell id="AlYXtU_ZY5P7jpcNASPs-53" value="" style="endArrow=none;html=1;rounded=0;" edge="1" parent="1">
          <mxGeometry width="50" height="50" relative="1" as="geometry">
            <mxPoint x="536.5" y="317.5" as="sourcePoint" />
            <mxPoint x="536.5" y="347.5" as="targetPoint" />
          </mxGeometry>
        </mxCell>
        <mxCell id="AlYXtU_ZY5P7jpcNASPs-54" value="" style="endArrow=none;html=1;rounded=0;entryX=1;entryY=0.5;entryDx=0;entryDy=0;" edge="1" parent="1" target="AlYXtU_ZY5P7jpcNASPs-51">
          <mxGeometry width="50" height="50" relative="1" as="geometry">
            <mxPoint x="626.5" y="317.5" as="sourcePoint" />
            <mxPoint x="676.5" y="257.5" as="targetPoint" />
          </mxGeometry>
        </mxCell>
        <mxCell id="AlYXtU_ZY5P7jpcNASPs-55" value="" style="endArrow=none;html=1;rounded=0;dashed=1;" edge="1" parent="1">
          <mxGeometry width="50" height="50" relative="1" as="geometry">
            <mxPoint x="659" y="390" as="sourcePoint" />
            <mxPoint x="659" y="350" as="targetPoint" />
          </mxGeometry>
        </mxCell>
        <mxCell id="AlYXtU_ZY5P7jpcNASPs-56" value="" style="endArrow=none;html=1;rounded=0;exitX=0.5;exitY=1;exitDx=0;exitDy=0;" edge="1" parent="1" source="AlYXtU_ZY5P7jpcNASPs-51">
          <mxGeometry width="50" height="50" relative="1" as="geometry">
            <mxPoint x="618" y="227.5" as="sourcePoint" />
            <mxPoint x="576.5" y="317.5" as="targetPoint" />
          </mxGeometry>
        </mxCell>
        <mxCell id="AlYXtU_ZY5P7jpcNASPs-58" value="" style="endArrow=none;html=1;rounded=0;exitX=0.5;exitY=1;exitDx=0;exitDy=0;" edge="1" parent="1" source="AlYXtU_ZY5P7jpcNASPs-3" target="AlYXtU_ZY5P7jpcNASPs-51">
          <mxGeometry width="50" height="50" relative="1" as="geometry">
            <mxPoint x="576.5" y="277.5" as="sourcePoint" />
            <mxPoint x="576.5" y="317.5" as="targetPoint" />
          </mxGeometry>
        </mxCell>
        <mxCell id="AlYXtU_ZY5P7jpcNASPs-51" value="" style="ellipse;whiteSpace=wrap;html=1;aspect=fixed;" vertex="1" parent="1">
          <mxGeometry x="567.5" y="307.5" width="20" height="20" as="geometry" />
        </mxCell>
        <mxCell id="AlYXtU_ZY5P7jpcNASPs-62" value="NombreCompleto" style="text;html=1;align=center;verticalAlign=middle;whiteSpace=wrap;rounded=0;rotation=90;" vertex="1" parent="1">
          <mxGeometry x="526.5" y="370" width="110" height="30" as="geometry" />
        </mxCell>
        <mxCell id="AlYXtU_ZY5P7jpcNASPs-63" value="Apellido1" style="text;html=1;align=center;verticalAlign=middle;whiteSpace=wrap;rounded=0;rotation=90;" vertex="1" parent="1">
          <mxGeometry x="551.5" y="427" width="110" height="30" as="geometry" />
        </mxCell>
        <mxCell id="AlYXtU_ZY5P7jpcNASPs-64" value="Apellido2" style="text;html=1;align=center;verticalAlign=middle;whiteSpace=wrap;rounded=0;rotation=90;" vertex="1" parent="1">
          <mxGeometry x="607" y="426.75" width="110" height="30" as="geometry" />
        </mxCell>
        <mxCell id="AlYXtU_ZY5P7jpcNASPs-65" value="" style="ellipse;whiteSpace=wrap;html=1;aspect=fixed;" vertex="1" parent="1">
          <mxGeometry x="340" y="550" width="20" height="20" as="geometry" />
        </mxCell>
        <mxCell id="AlYXtU_ZY5P7jpcNASPs-66" value="" style="ellipse;whiteSpace=wrap;html=1;aspect=fixed;" vertex="1" parent="1">
          <mxGeometry x="399" y="550" width="20" height="20" as="geometry" />
        </mxCell>
        <mxCell id="AlYXtU_ZY5P7jpcNASPs-67" value="" style="ellipse;whiteSpace=wrap;html=1;aspect=fixed;" vertex="1" parent="1">
          <mxGeometry x="369" y="600" width="20" height="20" as="geometry" />
        </mxCell>
        <mxCell id="AlYXtU_ZY5P7jpcNASPs-68" value="" style="endArrow=none;html=1;rounded=0;exitX=0;exitY=0.5;exitDx=0;exitDy=0;" edge="1" parent="1" source="AlYXtU_ZY5P7jpcNASPs-67">
          <mxGeometry width="50" height="50" relative="1" as="geometry">
            <mxPoint x="469" y="850" as="sourcePoint" />
            <mxPoint x="349" y="610" as="targetPoint" />
          </mxGeometry>
        </mxCell>
        <mxCell id="AlYXtU_ZY5P7jpcNASPs-69" value="" style="endArrow=none;html=1;rounded=0;" edge="1" parent="1">
          <mxGeometry width="50" height="50" relative="1" as="geometry">
            <mxPoint x="349.5" y="610" as="sourcePoint" />
            <mxPoint x="349" y="570" as="targetPoint" />
          </mxGeometry>
        </mxCell>
        <mxCell id="AlYXtU_ZY5P7jpcNASPs-70" value="" style="endArrow=none;html=1;rounded=0;entryX=1;entryY=0.5;entryDx=0;entryDy=0;" edge="1" parent="1" target="AlYXtU_ZY5P7jpcNASPs-67">
          <mxGeometry width="50" height="50" relative="1" as="geometry">
            <mxPoint x="409" y="610" as="sourcePoint" />
            <mxPoint x="359" y="620" as="targetPoint" />
          </mxGeometry>
        </mxCell>
        <mxCell id="AlYXtU_ZY5P7jpcNASPs-71" value="" style="endArrow=none;html=1;rounded=0;" edge="1" parent="1">
          <mxGeometry width="50" height="50" relative="1" as="geometry">
            <mxPoint x="409" y="610" as="sourcePoint" />
            <mxPoint x="409" y="570" as="targetPoint" />
          </mxGeometry>
        </mxCell>
        <mxCell id="AlYXtU_ZY5P7jpcNASPs-73" value="" style="ellipse;whiteSpace=wrap;html=1;aspect=fixed;" vertex="1" parent="1">
          <mxGeometry x="659" y="238.75" width="20" height="20" as="geometry" />
        </mxCell>
        <mxCell id="AlYXtU_ZY5P7jpcNASPs-75" value="" style="endArrow=none;html=1;rounded=0;entryX=0;entryY=0.5;entryDx=0;entryDy=0;" edge="1" parent="1" target="AlYXtU_ZY5P7jpcNASPs-73">
          <mxGeometry width="50" height="50" relative="1" as="geometry">
            <mxPoint x="637" y="248.75" as="sourcePoint" />
            <mxPoint x="719" y="238.75" as="targetPoint" />
          </mxGeometry>
        </mxCell>
        <mxCell id="AlYXtU_ZY5P7jpcNASPs-77" value="" style="ellipse;whiteSpace=wrap;html=1;aspect=fixed;" vertex="1" parent="1">
          <mxGeometry x="719" y="237.5" width="20" height="20" as="geometry" />
        </mxCell>
        <mxCell id="AlYXtU_ZY5P7jpcNASPs-76" value="" style="ellipse;whiteSpace=wrap;html=1;aspect=fixed;" vertex="1" parent="1">
          <mxGeometry x="719" y="188.75" width="20" height="20" as="geometry" />
        </mxCell>
        <mxCell id="AlYXtU_ZY5P7jpcNASPs-79" value="" style="endArrow=none;html=1;rounded=0;exitX=0;exitY=0.5;exitDx=0;exitDy=0;" edge="1" parent="1" source="AlYXtU_ZY5P7jpcNASPs-77">
          <mxGeometry width="50" height="50" relative="1" as="geometry">
            <mxPoint x="710.5" y="247.51999999999998" as="sourcePoint" />
            <mxPoint x="679" y="247.26999999999998" as="targetPoint" />
          </mxGeometry>
        </mxCell>
        <mxCell id="AlYXtU_ZY5P7jpcNASPs-78" value="" style="ellipse;whiteSpace=wrap;html=1;aspect=fixed;" vertex="1" parent="1">
          <mxGeometry x="719" y="288.75" width="20" height="20" as="geometry" />
        </mxCell>
        <mxCell id="AlYXtU_ZY5P7jpcNASPs-80" value="" style="endArrow=none;html=1;rounded=0;exitX=0;exitY=0.5;exitDx=0;exitDy=0;" edge="1" parent="1">
          <mxGeometry width="50" height="50" relative="1" as="geometry">
            <mxPoint x="720" y="198.77" as="sourcePoint" />
            <mxPoint x="688.5" y="198.52" as="targetPoint" />
          </mxGeometry>
        </mxCell>
        <mxCell id="AlYXtU_ZY5P7jpcNASPs-82" value="" style="endArrow=none;html=1;rounded=0;exitX=0;exitY=0.5;exitDx=0;exitDy=0;" edge="1" parent="1">
          <mxGeometry width="50" height="50" relative="1" as="geometry">
            <mxPoint x="720" y="298.77" as="sourcePoint" />
            <mxPoint x="688.5" y="298.52" as="targetPoint" />
          </mxGeometry>
        </mxCell>
        <mxCell id="AlYXtU_ZY5P7jpcNASPs-83" value="" style="endArrow=none;html=1;rounded=0;" edge="1" parent="1">
          <mxGeometry width="50" height="50" relative="1" as="geometry">
            <mxPoint x="689" y="248.75" as="sourcePoint" />
            <mxPoint x="689" y="198.75" as="targetPoint" />
          </mxGeometry>
        </mxCell>
        <mxCell id="AlYXtU_ZY5P7jpcNASPs-84" value="" style="endArrow=none;html=1;rounded=0;" edge="1" parent="1">
          <mxGeometry width="50" height="50" relative="1" as="geometry">
            <mxPoint x="689" y="298.75" as="sourcePoint" />
            <mxPoint x="689" y="248.75" as="targetPoint" />
          </mxGeometry>
        </mxCell>
        <mxCell id="AlYXtU_ZY5P7jpcNASPs-85" value="Domicilio" style="text;html=1;align=center;verticalAlign=middle;whiteSpace=wrap;rounded=0;rotation=-90;" vertex="1" parent="1">
          <mxGeometry x="614" y="188.75" width="110" height="30" as="geometry" />
        </mxCell>
        <mxCell id="AlYXtU_ZY5P7jpcNASPs-89" value="" style="endArrow=none;html=1;rounded=0;" edge="1" parent="1" source="AlYXtU_ZY5P7jpcNASPs-90">
          <mxGeometry width="50" height="50" relative="1" as="geometry">
            <mxPoint x="626.35" y="317.75" as="sourcePoint" />
            <mxPoint x="626.35" y="347.75" as="targetPoint" />
          </mxGeometry>
        </mxCell>
        <mxCell id="AlYXtU_ZY5P7jpcNASPs-91" value="" style="endArrow=none;html=1;rounded=0;" edge="1" parent="1" target="AlYXtU_ZY5P7jpcNASPs-90">
          <mxGeometry width="50" height="50" relative="1" as="geometry">
            <mxPoint x="626.35" y="317.75" as="sourcePoint" />
            <mxPoint x="626.35" y="347.75" as="targetPoint" />
          </mxGeometry>
        </mxCell>
        <mxCell id="AlYXtU_ZY5P7jpcNASPs-92" value="" style="endArrow=none;html=1;rounded=0;entryX=1;entryY=0.5;entryDx=0;entryDy=0;dashed=1;" edge="1" parent="1">
          <mxGeometry width="50" height="50" relative="1" as="geometry">
            <mxPoint x="660" y="350" as="sourcePoint" />
            <mxPoint x="636.5" y="350.25" as="targetPoint" />
          </mxGeometry>
        </mxCell>
        <mxCell id="AlYXtU_ZY5P7jpcNASPs-93" value="" style="endArrow=none;html=1;rounded=0;exitX=0;exitY=0.5;exitDx=0;exitDy=0;" edge="1" parent="1">
          <mxGeometry width="50" height="50" relative="1" as="geometry">
            <mxPoint x="624.25" y="350.25" as="sourcePoint" />
            <mxPoint x="600" y="350" as="targetPoint" />
          </mxGeometry>
        </mxCell>
        <mxCell id="AlYXtU_ZY5P7jpcNASPs-90" value="" style="ellipse;whiteSpace=wrap;html=1;aspect=fixed;" vertex="1" parent="1">
          <mxGeometry x="616.5" y="340" width="20" height="20" as="geometry" />
        </mxCell>
        <mxCell id="AlYXtU_ZY5P7jpcNASPs-94" value="" style="endArrow=none;html=1;rounded=0;entryX=0.358;entryY=-0.021;entryDx=0;entryDy=0;entryPerimeter=0;" edge="1" parent="1" target="AlYXtU_ZY5P7jpcNASPs-49">
          <mxGeometry width="50" height="50" relative="1" as="geometry">
            <mxPoint x="601.5" y="350" as="sourcePoint" />
            <mxPoint x="601.5" y="380" as="targetPoint" />
          </mxGeometry>
        </mxCell>
        <mxCell id="AlYXtU_ZY5P7jpcNASPs-95" value="Nombre" style="text;html=1;align=center;verticalAlign=middle;whiteSpace=wrap;rounded=0;rotation=90;" vertex="1" parent="1">
          <mxGeometry x="484" y="410" width="110" height="30" as="geometry" />
        </mxCell>
        <mxCell id="AlYXtU_ZY5P7jpcNASPs-96" value="" style="ellipse;whiteSpace=wrap;html=1;aspect=fixed;" vertex="1" parent="1">
          <mxGeometry x="526.5" y="340" width="20" height="20" as="geometry" />
        </mxCell>
        <mxCell id="AlYXtU_ZY5P7jpcNASPs-97" value="&lt;span style=&quot;color: rgb(0, 0, 0); font-family: Helvetica; font-size: 12px; font-style: normal; font-variant-ligatures: normal; font-variant-caps: normal; font-weight: 400; letter-spacing: normal; orphans: 2; text-align: center; text-indent: 0px; text-transform: none; widows: 2; word-spacing: 0px; -webkit-text-stroke-width: 0px; white-space: normal; background-color: rgb(251, 251, 251); text-decoration-thickness: initial; text-decoration-style: initial; text-decoration-color: initial; display: inline !important; float: none;&quot;&gt;ViaNombreNumero&lt;/span&gt;" style="text;html=1;align=center;verticalAlign=middle;whiteSpace=wrap;rounded=0;rotation=0;" vertex="1" parent="1">
          <mxGeometry x="739" y="183.75" width="110" height="30" as="geometry" />
        </mxCell>
        <mxCell id="AlYXtU_ZY5P7jpcNASPs-98" value="&lt;span style=&quot;color: rgb(0, 0, 0); font-family: Helvetica; font-size: 12px; font-style: normal; font-variant-ligatures: normal; font-variant-caps: normal; font-weight: 400; letter-spacing: normal; orphans: 2; text-align: center; text-indent: 0px; text-transform: none; widows: 2; word-spacing: 0px; -webkit-text-stroke-width: 0px; white-space: normal; background-color: rgb(251, 251, 251); text-decoration-thickness: initial; text-decoration-style: initial; text-decoration-color: initial; display: inline !important; float: none;&quot;&gt;CP&lt;/span&gt;" style="text;html=1;align=center;verticalAlign=middle;whiteSpace=wrap;rounded=0;rotation=0;" vertex="1" parent="1">
          <mxGeometry x="700" y="233.75" width="110" height="30" as="geometry" />
        </mxCell>
      </root>
    </mxGraphModel>
  </diagram>
</mxfile>
